<svg width="130" height="39" viewBox="0 0 130 39" fill="none" xmlns="http://www.w3.org/2000/svg">
<path d="M6.164 14.796C11.54 14.316 14.228 12.6 14.228 9.648C14.228 8.688 13.724 7.944 12.716 7.416C11.732 6.864 10.472 6.588 8.936 6.588L6.344 6.804C6.224 7.668 6.164 10.332 6.164 14.796ZM6.524 27.216C6.26 27.48 5.732 27.684 4.94 27.828C4.172 27.996 3.512 28.08 2.96 28.08C2.408 28.08 1.964 28.008 1.628 27.864L1.844 7.092C1.508 6.708 1.184 6.072 0.872 5.184C0.584 4.296 0.44 3.756 0.44 3.564C0.44 3.348 0.464 3.216 0.512 3.168C0.584 3.096 1.352 3.024 2.816 2.952C4.304 2.856 5.792 2.808 7.28 2.808C8.792 2.808 10.136 2.892 11.312 3.06C12.488 3.228 13.688 3.54 14.912 3.996C16.16 4.428 17.144 5.112 17.864 6.048C18.608 6.96 18.98 8.136 18.98 9.576C18.98 11.016 18.536 12.336 17.648 13.536C16.784 14.736 15.728 15.648 14.48 16.272C11.888 17.592 9.56 18.384 7.496 18.648L6.164 18.792C6.26 23.688 6.38 26.496 6.524 27.216ZM21.507 21.888L21.651 8.856C21.651 6.96 21.627 5.676 21.579 5.004C21.531 4.332 21.507 3.972 21.507 3.924C21.507 3.684 21.903 3.408 22.695 3.096C23.511 2.784 24.231 2.628 24.855 2.628C25.479 2.628 25.791 2.676 25.791 2.772C25.671 3.66 25.611 6.78 25.611 12.132L25.539 20.952C25.539 22.608 25.563 23.628 25.611 24.012C25.731 25.068 26.079 26.028 26.655 26.892C26.655 27.132 26.163 27.516 25.179 28.044C24.195 28.572 23.355 28.836 22.659 28.836C22.467 28.836 22.251 28.476 22.011 27.756C21.771 27.036 21.627 26.412 21.579 25.884C21.531 25.356 21.507 24.024 21.507 21.888ZM41.6715 18.972C41.6715 21.972 41.7075 23.724 41.7795 24.228C41.9715 25.548 42.3795 26.496 43.0035 27.072C43.0035 27.336 42.5235 27.732 41.5635 28.26C40.6275 28.788 39.7755 29.052 39.0075 29.052C38.7915 29.052 38.5635 28.728 38.3235 28.08C38.0835 27.456 37.9395 26.988 37.8915 26.676C37.8675 26.364 37.8435 26.208 37.8195 26.208L37.7115 26.28C36.4395 27.288 34.9515 27.792 33.2475 27.792C31.5435 27.792 30.2235 27.384 29.2875 26.568C28.3755 25.728 27.9195 24.636 27.9195 23.292C27.9195 21.948 28.2075 20.82 28.7835 19.908C29.3835 18.972 30.0795 18.264 30.8715 17.784C31.6635 17.304 32.5395 16.92 33.4995 16.632C34.9635 16.152 36.1155 15.912 36.9555 15.912L37.0275 15.876C37.0275 14.7 35.5395 14.112 32.5635 14.112C31.3875 14.112 30.5115 14.16 29.9355 14.256H29.8995C29.8995 13.776 30.0435 13.176 30.3315 12.456C30.6435 11.736 30.8955 11.268 31.0875 11.052C31.3035 10.836 32.1675 10.728 33.6795 10.728C36.4155 10.728 38.4315 11.256 39.7275 12.312C41.0235 13.344 41.6715 14.952 41.6715 17.136V18.972ZM37.6755 21.276V19.908C37.6755 19.38 37.6635 19.116 37.6395 19.116C36.0315 19.116 34.6395 19.536 33.4635 20.376C32.7195 20.904 32.3475 21.564 32.3475 22.356C32.3475 22.86 32.5275 23.28 32.8875 23.616C33.2475 23.952 33.7875 24.12 34.5075 24.12C35.2515 24.12 35.9595 23.904 36.6315 23.472C37.3275 23.04 37.6755 22.308 37.6755 21.276ZM58.267 16.956L58.303 26.532C58.303 28.404 58.051 30.072 57.547 31.536C57.067 33 56.467 34.128 55.747 34.92C55.051 35.712 54.247 36.36 53.335 36.864C51.847 37.704 50.335 38.124 48.799 38.124C48.727 38.124 48.583 37.944 48.367 37.584C48.151 37.224 47.947 36.732 47.755 36.108C47.563 35.508 47.467 34.944 47.467 34.416C48.379 34.416 49.291 34.236 50.203 33.876C51.115 33.54 51.751 33.168 52.111 32.76C52.471 32.376 52.831 31.884 53.191 31.284C53.935 30.108 54.307 28.2 54.307 25.56L54.271 24.516C54.271 24.372 54.247 24.3 54.199 24.3C54.151 24.3 54.103 24.336 54.055 24.408C54.007 24.48 53.947 24.576 53.875 24.696C53.803 24.792 53.623 24.984 53.335 25.272C53.071 25.536 52.783 25.776 52.471 25.992C51.631 26.568 50.779 26.856 49.915 26.856C49.075 26.856 48.403 26.748 47.899 26.532C47.419 26.316 47.011 26.04 46.675 25.704C46.363 25.368 46.099 24.9 45.883 24.3C45.667 23.676 45.499 23.1 45.379 22.572C45.259 22.044 45.175 21.324 45.127 20.412C45.031 19.14 44.983 17.82 44.983 16.452C44.983 14.556 45.079 13.008 45.271 11.808L45.379 11.304C45.379 11.136 45.739 10.968 46.459 10.8C47.203 10.632 47.815 10.548 48.295 10.548L49.447 10.728C49.183 13.104 49.051 15.108 49.051 16.74C49.051 18.372 49.219 19.728 49.555 20.808C49.891 21.888 50.455 22.428 51.247 22.428C52.039 22.428 52.663 22.2 53.119 21.744C53.599 21.264 53.899 20.796 54.019 20.34L54.199 19.656C54.151 18.144 54.127 16.524 54.127 14.796C54.127 13.044 54.187 12.108 54.307 11.988C54.619 11.676 55.159 11.436 55.927 11.268C56.719 11.1 57.355 11.016 57.835 11.016C58.315 11.016 58.555 11.052 58.555 11.124C58.363 12.252 58.267 14.196 58.267 16.956ZM61.7961 21.888L61.9401 8.856C61.9401 6.96 61.9161 5.676 61.8681 5.004C61.8201 4.332 61.7961 3.972 61.7961 3.924C61.7961 3.684 62.1921 3.408 62.9841 3.096C63.8001 2.784 64.5201 2.628 65.1441 2.628C65.7681 2.628 66.0801 2.676 66.0801 2.772C65.9601 3.66 65.9001 6.78 65.9001 12.132L65.8281 20.952C65.8281 22.608 65.8521 23.628 65.9001 24.012C66.0201 25.068 66.3681 26.028 66.9441 26.892C66.9441 27.132 66.4521 27.516 65.4681 28.044C64.4841 28.572 63.6441 28.836 62.9481 28.836C62.7561 28.836 62.5401 28.476 62.3001 27.756C62.0601 27.036 61.9161 26.412 61.8681 25.884C61.8201 25.356 61.7961 24.024 61.7961 21.888ZM71.7349 5.508C72.4069 5.508 72.9469 5.724 73.3549 6.156C73.7629 6.588 73.9669 7.152 73.9669 7.848C73.9669 8.544 73.6909 9.144 73.1389 9.648C72.6109 10.128 72.0109 10.368 71.3389 10.368C70.6909 10.368 70.1629 10.164 69.7549 9.756C69.3709 9.324 69.1789 8.76 69.1789 8.064C69.1789 7.368 69.4429 6.768 69.9709 6.264C70.4989 5.76 71.0869 5.508 71.7349 5.508ZM73.5709 14.472L73.4989 20.304C73.4989 22.176 73.5469 23.556 73.6429 24.444C73.7629 25.308 74.0749 26.124 74.5789 26.892C74.5789 27.132 74.0869 27.516 73.1029 28.044C72.1189 28.572 71.2789 28.836 70.5829 28.836C70.3669 28.836 70.1509 28.476 69.9349 27.756C69.7189 27.036 69.5749 26.352 69.5029 25.704C69.4549 25.056 69.4309 22.872 69.4309 19.152C69.4309 15.432 69.5149 13.404 69.6829 13.068C70.2349 12.636 71.2069 12.42 72.5989 12.42C73.1509 12.42 73.4869 12.492 73.6069 12.636L73.5709 14.472ZM87.2051 22.86C87.2051 24.156 86.5931 25.32 85.3691 26.352C84.1691 27.36 82.8611 28.08 81.4451 28.512C80.0531 28.968 78.8291 29.196 77.7731 29.196C77.6531 29.196 77.4851 29.052 77.2691 28.764C76.6691 27.972 76.3691 27.048 76.3691 25.992V25.74C78.2411 25.74 79.6691 25.416 80.6531 24.768C81.6371 24.12 82.1291 23.448 82.1291 22.752C82.1291 22.296 81.8291 21.816 81.2291 21.312C80.6291 20.808 79.9691 20.364 79.2491 19.98C78.5291 19.596 77.8691 19.092 77.2691 18.468C76.6691 17.82 76.3691 17.148 76.3691 16.452C76.3691 14.988 77.2811 13.644 79.1051 12.42C80.9291 11.196 82.8731 10.584 84.9371 10.584C85.1771 10.584 85.4891 10.92 85.8731 11.592C86.2571 12.24 86.4611 12.912 86.4851 13.608C86.0051 13.608 85.2851 13.752 84.3251 14.04C82.4291 14.64 81.4811 15.384 81.4811 16.272C81.4811 16.896 82.4171 17.748 84.2891 18.828C85.0091 19.236 85.6691 19.8 86.2691 20.52C86.8691 21.24 87.1811 22.02 87.2051 22.86ZM94.1415 3.42C94.0935 3.972 94.0335 5.484 93.9615 7.956C95.7615 7.956 96.6615 7.992 96.6615 8.064C96.6615 8.88 96.5415 9.612 96.3015 10.26C96.0615 10.884 95.8335 11.196 95.6175 11.196H93.9255C93.8775 14.748 93.8535 17.64 93.8535 19.872C93.8535 22.08 93.8895 23.556 93.9615 24.3C94.1055 25.548 94.5975 26.568 95.4375 27.36C95.4375 27.624 94.9695 28.008 94.0335 28.512C93.1215 29.016 92.2575 29.268 91.4415 29.268C91.3695 29.268 91.2255 29.148 91.0095 28.908C90.8175 28.668 90.6015 28.272 90.3615 27.72C90.1455 27.168 90.0015 26.628 89.9295 26.1C89.8815 25.572 89.8575 23.688 89.8575 20.448C89.8575 17.208 89.8935 14.148 89.9655 11.268L87.9495 11.304C87.8295 11.184 87.7695 10.668 87.7695 9.756C87.7695 8.82 87.8775 8.256 88.0935 8.064C88.6215 8.04 89.2575 8.016 90.0015 7.992C90.0015 6.6 89.9655 5.7 89.8935 5.292C89.8215 4.884 89.7855 4.644 89.7855 4.572C89.7855 4.332 90.1935 4.056 91.0095 3.744C91.8495 3.432 92.5815 3.276 93.2055 3.276C93.8295 3.276 94.1415 3.324 94.1415 3.42ZM100.141 5.508C100.813 5.508 101.353 5.724 101.761 6.156C102.169 6.588 102.373 7.152 102.373 7.848C102.373 8.544 102.097 9.144 101.545 9.648C101.017 10.128 100.417 10.368 99.7452 10.368C99.0972 10.368 98.5692 10.164 98.1612 9.756C97.7772 9.324 97.5852 8.76 97.5852 8.064C97.5852 7.368 97.8492 6.768 98.3772 6.264C98.9052 5.76 99.4932 5.508 100.141 5.508ZM101.977 14.472L101.905 20.304C101.905 22.176 101.953 23.556 102.049 24.444C102.169 25.308 102.481 26.124 102.985 26.892C102.985 27.132 102.493 27.516 101.509 28.044C100.525 28.572 99.6852 28.836 98.9892 28.836C98.7732 28.836 98.5572 28.476 98.3412 27.756C98.1252 27.036 97.9812 26.352 97.9092 25.704C97.8612 25.056 97.8372 22.872 97.8372 19.152C97.8372 15.432 97.9212 13.404 98.0892 13.068C98.6412 12.636 99.6132 12.42 101.005 12.42C101.557 12.42 101.893 12.492 102.013 12.636L101.977 14.472ZM110.211 13.104L110.391 27.504C110.391 28.44 110.367 29.028 110.319 29.268C109.407 29.94 108.195 30.276 106.683 30.276L105.675 30.096C106.035 27.432 106.215 22.512 106.215 15.336C106.215 13.536 106.203 12.216 106.179 11.376L104.595 11.448C104.475 11.328 104.415 10.8 104.415 9.864C104.415 8.928 104.523 8.352 104.739 8.136C105.171 8.112 105.639 8.088 106.143 8.064L106.071 3.708C106.023 3.324 106.911 2.688 108.735 1.8C110.559 0.911998 112.047 0.467998 113.199 0.467998C113.343 0.467998 113.523 0.743998 113.739 1.296C113.979 1.824 114.099 2.244 114.099 2.556C114.099 2.844 114.087 3.024 114.063 3.096C113.991 3.096 113.679 3.228 113.127 3.492C112.575 3.732 111.999 4.056 111.399 4.464C110.799 4.848 110.487 5.184 110.463 5.472C110.367 6.096 110.295 6.948 110.247 8.028H110.391C112.335 8.028 113.307 8.064 113.307 8.136C113.307 9.264 113.079 10.2 112.623 10.944C112.455 11.232 112.311 11.376 112.191 11.376C111.423 11.328 110.763 11.304 110.211 11.304V13.104ZM129.212 16.956L129.248 26.532C129.248 28.404 128.996 30.072 128.492 31.536C128.012 33 127.412 34.128 126.692 34.92C125.996 35.712 125.192 36.36 124.28 36.864C122.792 37.704 121.28 38.124 119.744 38.124C119.672 38.124 119.528 37.944 119.312 37.584C119.096 37.224 118.892 36.732 118.7 36.108C118.508 35.508 118.412 34.944 118.412 34.416C119.324 34.416 120.236 34.236 121.148 33.876C122.06 33.54 122.696 33.168 123.056 32.76C123.416 32.376 123.776 31.884 124.136 31.284C124.88 30.108 125.252 28.2 125.252 25.56L125.216 24.516C125.216 24.372 125.192 24.3 125.144 24.3C125.096 24.3 125.048 24.336 125 24.408C124.952 24.48 124.892 24.576 124.82 24.696C124.748 24.792 124.568 24.984 124.28 25.272C124.016 25.536 123.728 25.776 123.416 25.992C122.576 26.568 121.724 26.856 120.86 26.856C120.02 26.856 119.348 26.748 118.844 26.532C118.364 26.316 117.956 26.04 117.62 25.704C117.308 25.368 117.044 24.9 116.828 24.3C116.612 23.676 116.444 23.1 116.324 22.572C116.204 22.044 116.12 21.324 116.072 20.412C115.976 19.14 115.928 17.82 115.928 16.452C115.928 14.556 116.024 13.008 116.216 11.808L116.324 11.304C116.324 11.136 116.684 10.968 117.404 10.8C118.148 10.632 118.76 10.548 119.24 10.548L120.392 10.728C120.128 13.104 119.996 15.108 119.996 16.74C119.996 18.372 120.164 19.728 120.5 20.808C120.836 21.888 121.4 22.428 122.192 22.428C122.984 22.428 123.608 22.2 124.064 21.744C124.544 21.264 124.844 20.796 124.964 20.34L125.144 19.656C125.096 18.144 125.072 16.524 125.072 14.796C125.072 13.044 125.132 12.108 125.252 11.988C125.564 11.676 126.104 11.436 126.872 11.268C127.664 11.1 128.3 11.016 128.78 11.016C129.26 11.016 129.5 11.052 129.5 11.124C129.308 12.252 129.212 14.196 129.212 16.956Z" fill="#D8B07E"/>
</svg>
