<svg width="173" height="51" viewBox="0 0 173 51" fill="none" xmlns="http://www.w3.org/2000/svg">
<path d="M8.552 19.728C15.72 19.088 19.304 16.8 19.304 12.864C19.304 11.584 18.632 10.592 17.288 9.888C15.976 9.152 14.296 8.784 12.248 8.784L8.792 9.072C8.632 10.224 8.552 13.776 8.552 19.728ZM9.032 36.288C8.68 36.64 7.976 36.912 6.92 37.104C5.896 37.328 5.016 37.44 4.28 37.44C3.544 37.44 2.952 37.344 2.504 37.152L2.792 9.456C2.344 8.944 1.912 8.096 1.496 6.912C1.112 5.728 0.92 5.008 0.92 4.752C0.92 4.464 0.952 4.288 1.016 4.224C1.112 4.128 2.136 4.032 4.088 3.936C6.072 3.808 8.056 3.744 10.04 3.744C12.056 3.744 13.848 3.856 15.416 4.08C16.984 4.304 18.584 4.72 20.216 5.328C21.88 5.904 23.192 6.816 24.152 8.064C25.144 9.28 25.64 10.848 25.64 12.768C25.64 14.688 25.048 16.448 23.864 18.048C22.712 19.648 21.304 20.864 19.64 21.696C16.184 23.456 13.08 24.512 10.328 24.864L8.552 25.056C8.68 31.584 8.84 35.328 9.032 36.288ZM29.0094 29.184L29.2014 11.808C29.2014 9.28 29.1694 7.568 29.1054 6.672C29.0414 5.776 29.0094 5.296 29.0094 5.232C29.0094 4.912 29.5374 4.544 30.5934 4.128C31.6814 3.712 32.6414 3.504 33.4734 3.504C34.3054 3.504 34.7214 3.568 34.7214 3.696C34.5614 4.88 34.4814 9.04 34.4814 16.176L34.3854 27.936C34.3854 30.144 34.4174 31.504 34.4814 32.016C34.6414 33.424 35.1054 34.704 35.8734 35.856C35.8734 36.176 35.2174 36.688 33.9054 37.392C32.5934 38.096 31.4734 38.448 30.5454 38.448C30.2894 38.448 30.0014 37.968 29.6814 37.008C29.3614 36.048 29.1694 35.216 29.1054 34.512C29.0414 33.808 29.0094 32.032 29.0094 29.184ZM55.8954 25.296C55.8954 29.296 55.9434 31.632 56.0394 32.304C56.2954 34.064 56.8394 35.328 57.6714 36.096C57.6714 36.448 57.0314 36.976 55.7514 37.68C54.5034 38.384 53.3674 38.736 52.3434 38.736C52.0554 38.736 51.7514 38.304 51.4314 37.44C51.1114 36.608 50.9194 35.984 50.8554 35.568C50.8234 35.152 50.7914 34.944 50.7594 34.944L50.6154 35.04C48.9194 36.384 46.9354 37.056 44.6634 37.056C42.3914 37.056 40.6314 36.512 39.3834 35.424C38.1674 34.304 37.5594 32.848 37.5594 31.056C37.5594 29.264 37.9434 27.76 38.7114 26.544C39.5114 25.296 40.4394 24.352 41.4954 23.712C42.5514 23.072 43.7194 22.56 44.9994 22.176C46.9514 21.536 48.4874 21.216 49.6074 21.216L49.7034 21.168C49.7034 19.6 47.7194 18.816 43.7514 18.816C42.1834 18.816 41.0154 18.88 40.2474 19.008H40.1994C40.1994 18.368 40.3914 17.568 40.7754 16.608C41.1914 15.648 41.5274 15.024 41.7834 14.736C42.0714 14.448 43.2234 14.304 45.2394 14.304C48.8874 14.304 51.5754 15.008 53.3034 16.416C55.0314 17.792 55.8954 19.936 55.8954 22.848V25.296ZM50.5674 28.368V26.544C50.5674 25.84 50.5514 25.488 50.5194 25.488C48.3754 25.488 46.5194 26.048 44.9514 27.168C43.9594 27.872 43.4634 28.752 43.4634 29.808C43.4634 30.48 43.7034 31.04 44.1834 31.488C44.6634 31.936 45.3834 32.16 46.3434 32.16C47.3354 32.16 48.2794 31.872 49.1754 31.296C50.1034 30.72 50.5674 29.744 50.5674 28.368ZM78.0226 22.608L78.0706 35.376C78.0706 37.872 77.7346 40.096 77.0626 42.048C76.4226 44 75.6226 45.504 74.6626 46.56C73.7346 47.616 72.6626 48.48 71.4466 49.152C69.4626 50.272 67.4466 50.832 65.3986 50.832C65.3026 50.832 65.1106 50.592 64.8226 50.112C64.5346 49.632 64.2626 48.976 64.0066 48.144C63.7506 47.344 63.6226 46.592 63.6226 45.888C64.8386 45.888 66.0546 45.648 67.2706 45.168C68.4866 44.72 69.3346 44.224 69.8146 43.68C70.2946 43.168 70.7746 42.512 71.2546 41.712C72.2466 40.144 72.7426 37.6 72.7426 34.08L72.6946 32.688C72.6946 32.496 72.6626 32.4 72.5986 32.4C72.5346 32.4 72.4706 32.448 72.4066 32.544C72.3426 32.64 72.2626 32.768 72.1666 32.928C72.0706 33.056 71.8306 33.312 71.4466 33.696C71.0946 34.048 70.7106 34.368 70.2946 34.656C69.1746 35.424 68.0386 35.808 66.8866 35.808C65.7666 35.808 64.8706 35.664 64.1986 35.376C63.5586 35.088 63.0146 34.72 62.5666 34.272C62.1506 33.824 61.7986 33.2 61.5106 32.4C61.2226 31.568 60.9986 30.8 60.8386 30.096C60.6786 29.392 60.5666 28.432 60.5026 27.216C60.3746 25.52 60.3106 23.76 60.3106 21.936C60.3106 19.408 60.4386 17.344 60.6946 15.744L60.8386 15.072C60.8386 14.848 61.3186 14.624 62.2786 14.4C63.2706 14.176 64.0866 14.064 64.7266 14.064L66.2626 14.304C65.9106 17.472 65.7346 20.144 65.7346 22.32C65.7346 24.496 65.9586 26.304 66.4066 27.744C66.8546 29.184 67.6066 29.904 68.6626 29.904C69.7186 29.904 70.5506 29.6 71.1586 28.992C71.7986 28.352 72.1986 27.728 72.3586 27.12L72.5986 26.208C72.5346 24.192 72.5026 22.032 72.5026 19.728C72.5026 17.392 72.5826 16.144 72.7426 15.984C73.1586 15.568 73.8786 15.248 74.9026 15.024C75.9586 14.8 76.8066 14.688 77.4466 14.688C78.0866 14.688 78.4066 14.736 78.4066 14.832C78.1506 16.336 78.0226 18.928 78.0226 22.608ZM82.7281 29.184L82.9201 11.808C82.9201 9.28 82.8881 7.568 82.8241 6.672C82.7601 5.776 82.7281 5.296 82.7281 5.232C82.7281 4.912 83.2561 4.544 84.3121 4.128C85.4001 3.712 86.3601 3.504 87.1921 3.504C88.0241 3.504 88.4401 3.568 88.4401 3.696C88.2801 4.88 88.2001 9.04 88.2001 16.176L88.1041 27.936C88.1041 30.144 88.1361 31.504 88.2001 32.016C88.3601 33.424 88.8241 34.704 89.5921 35.856C89.5921 36.176 88.9361 36.688 87.6241 37.392C86.3121 38.096 85.1921 38.448 84.2641 38.448C84.0081 38.448 83.7201 37.968 83.4001 37.008C83.0801 36.048 82.8881 35.216 82.8241 34.512C82.7601 33.808 82.7281 32.032 82.7281 29.184ZM95.9799 7.344C96.8759 7.344 97.5959 7.632 98.1399 8.208C98.6839 8.784 98.9559 9.536 98.9559 10.464C98.9559 11.392 98.5879 12.192 97.8519 12.864C97.1479 13.504 96.3479 13.824 95.4519 13.824C94.5879 13.824 93.8839 13.552 93.3399 13.008C92.8279 12.432 92.5719 11.68 92.5719 10.752C92.5719 9.824 92.9239 9.024 93.6279 8.352C94.3319 7.68 95.1159 7.344 95.9799 7.344ZM98.4279 19.296L98.3319 27.072C98.3319 29.568 98.3959 31.408 98.5239 32.592C98.6839 33.744 99.0999 34.832 99.7719 35.856C99.7719 36.176 99.1159 36.688 97.8039 37.392C96.4919 38.096 95.3719 38.448 94.4439 38.448C94.1559 38.448 93.8679 37.968 93.5799 37.008C93.2919 36.048 93.0999 35.136 93.0039 34.272C92.9399 33.408 92.9079 30.496 92.9079 25.536C92.9079 20.576 93.0199 17.872 93.2439 17.424C93.9799 16.848 95.2759 16.56 97.1319 16.56C97.8679 16.56 98.3159 16.656 98.4759 16.848L98.4279 19.296ZM116.607 30.48C116.607 32.208 115.791 33.76 114.159 35.136C112.559 36.48 110.815 37.44 108.927 38.016C107.071 38.624 105.439 38.928 104.031 38.928C103.871 38.928 103.647 38.736 103.359 38.352C102.559 37.296 102.159 36.064 102.159 34.656V34.32C104.655 34.32 106.559 33.888 107.871 33.024C109.183 32.16 109.839 31.264 109.839 30.336C109.839 29.728 109.439 29.088 108.639 28.416C107.839 27.744 106.959 27.152 105.999 26.64C105.039 26.128 104.159 25.456 103.359 24.624C102.559 23.76 102.159 22.864 102.159 21.936C102.159 19.984 103.375 18.192 105.807 16.56C108.239 14.928 110.831 14.112 113.583 14.112C113.903 14.112 114.319 14.56 114.831 15.456C115.343 16.32 115.615 17.216 115.647 18.144C115.007 18.144 114.047 18.336 112.767 18.72C110.239 19.52 108.975 20.512 108.975 21.696C108.975 22.528 110.223 23.664 112.719 25.104C113.679 25.648 114.559 26.4 115.359 27.36C116.159 28.32 116.575 29.36 116.607 30.48ZM125.855 4.56C125.791 5.296 125.711 7.312 125.615 10.608C128.015 10.608 129.215 10.656 129.215 10.752C129.215 11.84 129.055 12.816 128.735 13.68C128.415 14.512 128.111 14.928 127.823 14.928H125.567C125.503 19.664 125.471 23.52 125.471 26.496C125.471 29.44 125.519 31.408 125.615 32.4C125.807 34.064 126.463 35.424 127.583 36.48C127.583 36.832 126.959 37.344 125.711 38.016C124.495 38.688 123.343 39.024 122.255 39.024C122.159 39.024 121.967 38.864 121.679 38.544C121.423 38.224 121.135 37.696 120.815 36.96C120.527 36.224 120.335 35.504 120.239 34.8C120.175 34.096 120.143 31.584 120.143 27.264C120.143 22.944 120.191 18.864 120.287 15.024L117.599 15.072C117.439 14.912 117.359 14.224 117.359 13.008C117.359 11.76 117.503 11.008 117.791 10.752C118.495 10.72 119.343 10.688 120.335 10.656C120.335 8.8 120.287 7.6 120.191 7.056C120.095 6.512 120.047 6.192 120.047 6.096C120.047 5.776 120.591 5.408 121.679 4.992C122.799 4.576 123.775 4.368 124.607 4.368C125.439 4.368 125.855 4.432 125.855 4.56ZM133.855 7.344C134.751 7.344 135.471 7.632 136.015 8.208C136.559 8.784 136.831 9.536 136.831 10.464C136.831 11.392 136.463 12.192 135.727 12.864C135.023 13.504 134.223 13.824 133.327 13.824C132.463 13.824 131.759 13.552 131.215 13.008C130.703 12.432 130.447 11.68 130.447 10.752C130.447 9.824 130.799 9.024 131.503 8.352C132.207 7.68 132.991 7.344 133.855 7.344ZM136.303 19.296L136.207 27.072C136.207 29.568 136.271 31.408 136.399 32.592C136.559 33.744 136.975 34.832 137.647 35.856C137.647 36.176 136.991 36.688 135.679 37.392C134.367 38.096 133.247 38.448 132.319 38.448C132.031 38.448 131.743 37.968 131.455 37.008C131.167 36.048 130.975 35.136 130.879 34.272C130.815 33.408 130.783 30.496 130.783 25.536C130.783 20.576 130.895 17.872 131.119 17.424C131.855 16.848 133.151 16.56 135.007 16.56C135.743 16.56 136.191 16.656 136.351 16.848L136.303 19.296ZM147.282 17.472L147.522 36.672C147.522 37.92 147.49 38.704 147.426 39.024C146.21 39.92 144.594 40.368 142.578 40.368L141.234 40.128C141.714 36.576 141.954 30.016 141.954 20.448C141.954 18.048 141.938 16.288 141.906 15.168L139.794 15.264C139.634 15.104 139.554 14.4 139.554 13.152C139.554 11.904 139.698 11.136 139.986 10.848C140.562 10.816 141.186 10.784 141.858 10.752L141.762 4.944C141.698 4.432 142.882 3.584 145.314 2.4C147.746 1.216 149.73 0.623998 151.266 0.623998C151.458 0.623998 151.698 0.991998 151.986 1.728C152.306 2.432 152.466 2.992 152.466 3.408C152.466 3.792 152.45 4.032 152.418 4.128C152.322 4.128 151.906 4.304 151.17 4.656C150.434 4.976 149.666 5.408 148.866 5.952C148.066 6.464 147.65 6.912 147.618 7.296C147.49 8.128 147.394 9.264 147.33 10.704H147.522C150.114 10.704 151.41 10.752 151.41 10.848C151.41 12.352 151.106 13.6 150.498 14.592C150.274 14.976 150.082 15.168 149.922 15.168C148.898 15.104 148.018 15.072 147.282 15.072V17.472ZM172.616 22.608L172.664 35.376C172.664 37.872 172.328 40.096 171.656 42.048C171.016 44 170.216 45.504 169.256 46.56C168.328 47.616 167.256 48.48 166.04 49.152C164.056 50.272 162.04 50.832 159.992 50.832C159.896 50.832 159.704 50.592 159.416 50.112C159.128 49.632 158.856 48.976 158.6 48.144C158.344 47.344 158.216 46.592 158.216 45.888C159.432 45.888 160.648 45.648 161.864 45.168C163.08 44.72 163.928 44.224 164.408 43.68C164.888 43.168 165.368 42.512 165.848 41.712C166.84 40.144 167.336 37.6 167.336 34.08L167.288 32.688C167.288 32.496 167.256 32.4 167.192 32.4C167.128 32.4 167.064 32.448 167 32.544C166.936 32.64 166.856 32.768 166.76 32.928C166.664 33.056 166.424 33.312 166.04 33.696C165.688 34.048 165.304 34.368 164.888 34.656C163.768 35.424 162.632 35.808 161.48 35.808C160.36 35.808 159.464 35.664 158.792 35.376C158.152 35.088 157.608 34.72 157.16 34.272C156.744 33.824 156.392 33.2 156.104 32.4C155.816 31.568 155.592 30.8 155.432 30.096C155.272 29.392 155.16 28.432 155.096 27.216C154.968 25.52 154.904 23.76 154.904 21.936C154.904 19.408 155.032 17.344 155.288 15.744L155.432 15.072C155.432 14.848 155.912 14.624 156.872 14.4C157.864 14.176 158.68 14.064 159.32 14.064L160.856 14.304C160.504 17.472 160.328 20.144 160.328 22.32C160.328 24.496 160.552 26.304 161 27.744C161.448 29.184 162.2 29.904 163.256 29.904C164.312 29.904 165.144 29.6 165.752 28.992C166.392 28.352 166.792 27.728 166.952 27.12L167.192 26.208C167.128 24.192 167.096 22.032 167.096 19.728C167.096 17.392 167.176 16.144 167.336 15.984C167.752 15.568 168.472 15.248 169.496 15.024C170.552 14.8 171.4 14.688 172.04 14.688C172.68 14.688 173 14.736 173 14.832C172.744 16.336 172.616 18.928 172.616 22.608Z" fill="#D8B07E"/>
</svg>
